# xmcd
#
# Track frame offsets:
#	150
#	17345
#	38824
#	57186
#	85941
#	107361
#	125214
#	144241
#	163874
#	181985
#	199354
#	216315
#	233816
#	250554
#	268275
#	282401
#	300508
#	324923
#
# Disc length: 4569 seconds
#
# Revision: 1
# Processed by: cddbd v1.5.2PL0 Copyright (c) Steve Scherf et al.
# Submitted via: audiograbber 1.83.01
#
DISCID=fc11d712
DTITLE=Keith Urban - Greatest Hits
DYEAR=1900
DGENRE=Country
TTITLE0=Romeo's Tune
TTITLE1=Got It Right This Time
TTITLE2=I Told You So
TTITLE3=Stupid Boy
TTITLE4=Better Life
TTITLE5=Making Memories Of Us
TTITLE6=Once In A Lifetime
TTITLE7=Tonight I Wanna Cry
TTITLE8=You're My Better Half
TTITLE9=Days Go By
TTITLE10=But For The Grace Of God
TTITLE11=You'll Think Of Me
TTITLE12=Who Wouldn't Wanna Be Me
TTITLE13=Raining On Sunday
TTITLE14=Where The Blacktop Ends
TTITLE15=Your Everything
TTITLE16=Somebody Like You
TTITLE17=Everybody
EXTD=
EXTT0=
EXTT1=
EXTT2=
EXTT3=
EXTT4=
EXTT5=
EXTT6=
EXTT7=
EXTT8=
EXTT9=
EXTT10=
EXTT11=
EXTT12=
EXTT13=
EXTT14=
EXTT15=
EXTT16=
EXTT17=
PLAYORDER=
